<svg xmlns="http://www.w3.org/2000/svg" xmlns:xlink="http://www.w3.org/1999/xlink" viewBox="0 0 437 437"><defs><style>.cls-1{isolation:isolate;}.cls-2{mix-blend-mode:multiply;opacity:0.41;}.cls-3{fill:#fe8000;}.cls-4{fill:url(#linear-gradient);}.cls-5{fill:url(#linear-gradient-2);}.cls-6{fill:url(#linear-gradient-3);}.cls-7{fill:url(#linear-gradient-4);}</style><linearGradient id="linear-gradient" x1="4.15" y1="218.5" x2="142.03" y2="218.5" gradientUnits="userSpaceOnUse"><stop offset="0" stop-color="#00e9ea"/><stop offset="1" stop-color="#82ebea"/></linearGradient><linearGradient id="linear-gradient-2" x1="432.85" x2="294.4" xlink:href="#linear-gradient"/><linearGradient id="linear-gradient-3" x1="218.5" y1="2.21" x2="218.5" y2="146.68" xlink:href="#linear-gradient"/><linearGradient id="linear-gradient-4" x1="217.29" y1="435.15" x2="219.65" y2="296.33" xlink:href="#linear-gradient"/></defs><g class="cls-1"><g id="Layer_1" data-name="Layer 1"><path class="cls-3" d="M307.43,274.72a33.16,33.16,0,0,0-18.09,5L259.9,250.14a51.33,51.33,0,0,0,0-61.42l29.44-29.6a33.16,33.16,0,0,0,18.09,5,33.3,33.3,0,1,0-33.82-33.73,33.1,33.1,0,0,0,5.1,18.14l-29.44,29.6a51.32,51.32,0,0,0-61,0l-29.44-29.6A33.1,33.1,0,0,0,164,130.4a33.31,33.31,0,1,0-15.73,28.72l29.43,29.6a51.37,51.37,0,0,0,0,61.42l-29.43,29.59a33.19,33.19,0,0,0-18.09-5A33.3,33.3,0,1,0,164,308.46a33.11,33.11,0,0,0-5.1-18.15l29.44-29.6a51.32,51.32,0,0,0,61,0l29.44,29.6a33,33,0,0,0-5.1,18.15,33.29,33.29,0,1,0,33.82-33.74Z"/><rect class="cls-4" x="4.15" y="206.79" width="137.88" height="23.41" rx="11.71"/><rect class="cls-5" x="294.97" y="206.79" width="137.88" height="23.41" rx="11.71"/><rect class="cls-6" x="206.79" y="4.15" width="23.41" height="137.88" rx="11.71"/><rect class="cls-7" x="206.79" y="294.97" width="23.41" height="137.88" rx="11.71"/></g></g></svg>
